<svg width="24" height="24" viewBox="0 0 24 24" fill="none" xmlns="http://www.w3.org/2000/svg">
<path d="M12 0.25C12.5063 0.25 12.9167 0.660406 12.9167 1.16667V2.75118C16.5341 3.20226 19.3333 6.28812 19.3333 10.0278V13.9018C19.3333 14.0115 19.3921 14.1127 19.4873 14.1671L20.4706 14.729C21.0641 15.0682 21.4598 15.6705 21.5353 16.3499L21.6214 17.1249C21.7622 18.3919 20.7704 19.5 19.4956 19.5H14.75C14.75 21.0188 13.5188 22.25 12 22.25C10.4812 22.25 9.24999 21.0188 9.24999 19.5H4.50444C3.22963 19.5 2.23785 18.3919 2.37863 17.1249L2.46474 16.3499C2.54023 15.6705 2.93588 15.0682 3.52936 14.729L4.51271 14.1671C4.60792 14.1127 4.66667 14.0115 4.66667 13.9018V10.0278C4.66667 6.28813 7.46588 3.20228 11.0833 2.75118V1.16667C11.0833 0.660406 11.4937 0.25 12 0.25ZM11.0833 19.5C11.0833 20.0063 11.4937 20.4167 12 20.4167C12.5063 20.4167 12.9167 20.0063 12.9167 19.5H11.0833ZM12 4.52778C8.96244 4.52778 6.5 6.99021 6.5 10.0278V13.9018C6.5 14.6694 6.08872 15.3781 5.4223 15.7589L4.43895 16.3208C4.35417 16.3693 4.29765 16.4553 4.28686 16.5524L4.20075 17.3274C4.18064 17.5084 4.32232 17.6667 4.50444 17.6667H19.4956C19.6777 17.6667 19.8194 17.5084 19.7993 17.3274L19.7131 16.5524C19.7024 16.4553 19.6458 16.3693 19.5611 16.3208L18.5777 15.7589C17.9113 15.3781 17.5 14.6694 17.5 13.9018V10.0278C17.5 6.99021 15.0376 4.52778 12 4.52778Z" fill="black"/>
</svg>
